Coordinates
version=1
nRows=10
nColumns=28
inDegrees=yes

Units are S.I. units (second, meters, Newtons, ...)
Angles are in degrees.

endheader
time	pelvis_tilt	pelvis_list	pelvis_rotation	pelvis_tx	pelvis_ty	pelvis_tz	hip_flexion_r	hip_adduction_r	hip_rotation_r	knee_angle_r	ankle_angle_r	subtalar_angle_r	mtp_angle_r	hip_flexion_l	hip_adduction_l	hip_rotation_l	knee_angle_l	socket_flexion	socket_adduction	socket_rotation	socket_tx	socket_ty	socket_tz	foot_flex	lumbar_extension	lumbar_bending	lumbar_rotation
      0.00000000	     -1.29824738	     -0.39210761	     -7.18573520	     -0.78761673	      0.96472169	      0.29004945	    -23.31228192	     -0.32198047	      8.61677668	     -5.30104052	     -3.63527880	    -18.37179250	     11.51507830	     25.60001975	     -1.13607591	      3.57317904	      0.76347670	      1.73763689	     -4.80436895	     -0.74084756	      0.01556028	      0.00226958	     -0.00235289	     -1.26100656	     -6.89020128	      0.79122879	      3.55584263
      0.00416667	     -1.15293078	     -0.44111961	     -6.85681063	     -0.78181590	      0.96325352	      0.28915658	    -23.40355006	     -0.29566612	      7.04014547	     -5.98118191	     -3.62243625	    -16.72380629	     17.54854873	     26.03798964	     -1.05704229	      3.00197472	      0.18221219	      2.21581380	     -4.64195054	      0.10076138	      0.01935572	      0.00169825	     -0.00295073	     -1.87692581	     -7.12353148	      0.74316201	      1.68182492
      0.00833333	     -1.19052934	     -0.28211507	     -7.02810783	     -0.77545952	      0.96204209	      0.28903667	    -23.44076373	     -0.56912795	      6.86954831	     -6.40121713	     -3.93329433	    -16.77993323	     17.73539796	     26.04160465	     -1.02185352	      2.91161564	     -0.03035785	      2.44593844	     -4.53574917	     -0.14577579	      0.01954502	      0.00136837	     -0.00335185	     -2.52537608	     -7.02508848	      0.55350228	      2.08263170
      0.01250000	     -1.13890920	     -0.24375021	     -7.08858793	     -0.76889942	      0.96084884	      0.28862762	    -23.69683839	     -0.68300022	      6.89081935	     -6.68257333	     -4.02403362	    -16.77156229	     17.77531930	     26.03927828	     -1.00232228	      2.87333906	     -0.34887280	      2.76963508	     -4.43453226	     -0.26983097	      0.02000000	      0.00108470	     -0.00343595	     -2.77161046	     -6.84887432	      0.52492668	      2.14054747
      0.01666667	     -1.15777905	     -0.15152044	     -7.15486559	     -0.76220632	      0.95964638	      0.28846248	    -23.78578128	     -0.82507348	      6.76487081	     -7.09856120	     -4.34288894	    -16.75858183	     17.90492996	     26.04671562	     -1.02602837	      2.73755084	     -0.64795199	      2.96349203	     -4.20713922	     -0.53689179	      0.02000000	      0.00062309	     -0.00403590	     -3.58105885	     -6.81267111	      0.30811387	      2.32938710
      0.02083333	     -1.14972079	     -0.06502853	     -7.25534944	     -0.75537840	      0.95844582	      0.28830030	    -23.89424517	     -0.98920657	      6.63997863	     -7.53020204	     -4.66022227	    -16.74134202	     18.05470526	     26.03392147	     -1.05709077	      2.67799820	     -0.99905651	      3.19851243	     -4.04459523	     -0.69906752	      0.02000000	      0.00012612	     -0.00464956	     -4.13314588	     -6.73118801	      0.14628769	      2.50093833
      0.02500000	     -1.16510932	      0.04756762	     -7.41482294	     -0.74843886	      0.95718763	      0.28809270	    -23.89673270	     -1.23374980	      6.37477326	     -8.08136125	     -5.16772796	    -16.71820126	     18.34202187	     26.04175307	     -1.12667574	      2.59894228	     -1.40164377	      3.34047863	     -3.86474199	     -0.87289792	      0.02000000	     -0.00053790	     -0.00576135	     -4.87928577	     -6.69205997	     -0.09007316	      2.76015933
      0.02916667	     -1.49841834	      0.24699295	     -7.55795216	     -0.74111340	      0.95550881	      0.28767115	    -23.39510739	     -1.58598784	      5.64606553	     -8.86074782	     -6.08430455	    -16.71800053	     24.81013314	     26.68432945	     -0.97647626	      1.40131850	     -3.19242605	      2.44714246	     -3.83069115	     -0.08247318	      0.01889644	     -0.00111851	     -0.00545577	     -5.35811595	     -6.05473102	     -0.13796923	      4.04791041
      0.03333333	     -1.41813427	      0.30382166	     -7.53687314	     -0.73413192	      0.95441727	      0.28713392	    -23.63104180	     -1.68362383	      5.72967635	     -9.23261004	     -6.23268641	    -16.67860907	     24.82815671	     26.68117146	     -0.95535562	      1.38622769	     -3.57247265	      2.82740673	     -3.68385896	     -0.16520580	      0.01946887	     -0.00163002	     -0.00613531	     -5.70674748	     -5.96438372	     -0.24549213	      4.00342484
      0.03750000	     -1.40832312	      0.35687405	     -7.55449207	     -0.72720813	      0.95339634	      0.28687230	    -23.62636673	     -1.77400227	      5.54386006	     -9.83381754	     -6.74197325	    -16.62320177	     24.87186438	     26.73230809	     -1.01442107	      1.25281373	     -3.91228389	      3.14396494	     -3.46929392	     -0.28766010	      0.02000000	     -0.00223960	     -0.00703188	     -6.59860206	     -6.16169854	     -0.58388980	      3.89141851
